<?xml version="1.0" standalone="no"?>
<!DOCTYPE svg PUBLIC "-//W3C//DTD SVG 20010904//EN"
 "http://www.w3.org/TR/2001/REC-SVG-20010904/DTD/svg10.dtd">
<svg version="1.0" xmlns="http://www.w3.org/2000/svg"
 width="202.000000pt" height="286.000000pt" viewBox="0 0 202.000000 286.000000"
 preserveAspectRatio="xMidYMid meet">
<metadata>
Created by potrace 1.16, written by Peter Selinger 2001-2019
</metadata>
<g transform="translate(0.000000,286.000000) scale(0.100000,-0.100000)"
fill="#000000" stroke="none">
<path d="M136 2362 c-8 -14 44 -235 58 -244 18 -12 63 -9 74 5 5 6 12 21 14
32 l5 20 7 -20 c5 -11 10 -26 12 -33 2 -9 17 -12 41 -10 37 3 38 3 59 78 l23
75 0 -71 c1 -54 5 -73 16 -78 12 -4 11 -10 -8 -30 -12 -13 -29 -34 -38 -47
-14 -20 -19 -21 -31 -11 -10 8 -41 11 -87 10 -70 -3 -71 -3 -71 22 0 45 -42
66 -72 36 -20 -19 -24 -228 -6 -244 7 -6 46 -10 88 -9 l75 2 6 60 5 60 5 -60
c4 -55 6 -60 29 -63 24 -3 25 -6 22 -57 l-4 -55 -25 20 c-34 26 -92 26 -127
-1 -21 -16 -26 -17 -26 -5 0 18 -58 31 -95 22 -37 -9 -61 -50 -47 -81 8 -18 8
-33 0 -56 -9 -28 -8 -34 7 -46 27 -19 88 -16 116 6 24 19 25 19 48 0 30 -25
91 -25 123 0 24 19 24 19 37 0 9 -15 21 -19 44 -17 26 2 33 8 38 33 4 17 7 23
8 14 2 -35 34 -49 107 -46 l69 2 6 60 c5 57 6 57 7 14 3 -66 20 -78 114 -78
68 0 78 2 83 20 6 19 7 19 32 -1 33 -26 92 -26 126 0 25 20 25 20 30 -1 5 -17
12 -20 44 -17 l38 3 6 60 5 60 5 -60 4 -60 96 -2 c85 -2 99 0 118 19 18 16 22
27 16 52 -4 17 -6 50 -6 72 1 35 -3 43 -21 48 -42 11 -67 6 -94 -17 l-27 -23
-22 22 c-18 18 -34 23 -77 22 -67 0 -88 -6 -88 -23 0 -11 -8 -9 -35 7 -40 23
-95 20 -125 -7 -21 -19 -31 -4 -23 37 5 29 -18 58 -47 58 -23 0 -51 -37 -43
-56 3 -8 -1 -14 -11 -14 -10 0 -16 8 -16 21 0 18 -4 20 -32 14 -18 -4 -39 -14
-45 -23 -8 -9 -29 -16 -55 -16 l-43 -1 -6 -60 -5 -60 -5 60 -4 60 -42 0 c-41
0 -41 1 -45 38 -3 33 -1 37 19 37 13 0 24 5 24 10 1 6 3 15 4 20 1 6 3 14 4
19 0 5 14 -4 30 -20 36 -36 95 -40 134 -9 l26 20 6 -20 c5 -17 14 -21 43 -18
l37 3 5 55 c3 30 8 54 13 53 4 -2 12 -3 17 -3 6 0 10 -25 10 -56 l0 -55 38 3
37 3 6 60 5 60 5 -60 4 -60 40 0 40 0 6 60 5 60 5 -60 c4 -57 5 -60 32 -63 16
-2 35 2 43 9 11 9 17 9 28 0 9 -7 41 -11 83 -9 l68 3 -3 30 -3 30 21 -33 c18
-30 25 -33 63 -32 23 1 57 1 75 1 31 -1 32 -2 20 -23 -10 -16 -12 -56 -10
-135 l3 -112 82 2 82 2 3 58 c2 31 6 57 10 57 5 0 6 -16 4 -35 -2 -19 -1 -46
2 -61 6 -22 11 -25 44 -22 29 2 38 8 40 24 l3 22 24 -24 c21 -21 32 -24 110
-23 80 1 87 2 97 24 7 16 7 29 -2 45 -11 20 -17 22 -63 16 -28 -4 -55 -8 -61
-9 -6 -1 -12 8 -14 21 -3 19 1 22 26 22 30 0 42 14 42 50 0 35 -67 41 -117 10
-18 -11 -33 -25 -33 -31 0 -6 -13 3 -29 20 -28 30 -31 31 -100 27 -67 -3 -71
-2 -65 16 6 21 -20 58 -42 58 -7 0 -10 8 -7 20 5 20 5 20 30 0 33 -26 93 -26
126 0 25 20 25 20 30 0 4 -16 14 -20 46 -20 l41 0 2 63 1 62 6 -60 6 -60 43
-3 42 -3 0 79 c0 102 -13 116 -106 119 -54 1 -67 -2 -77 -17 -10 -17 -13 -18
-28 -4 -29 26 -84 29 -124 6 -38 -23 -39 -22 -35 40 1 16 -6 30 -17 37 -14 8
-5 10 40 11 94 0 140 31 156 100 l6 26 40 -23 40 -24 -40 3 c-35 3 -40 0 -49
-25 -14 -39 11 -57 77 -57 40 0 53 5 78 29 45 45 34 97 -28 130 l-38 21 34 -3
c30 -2 35 1 42 28 12 42 -11 58 -75 52 -38 -3 -55 -11 -73 -31 l-22 -27 -21
21 c-28 28 -63 40 -116 40 -56 0 -84 -14 -84 -42 0 -20 -1 -20 -26 5 -49 49
-125 48 -175 -3 -27 -26 -30 -27 -41 -11 -41 55 -113 66 -171 26 l-37 -24 3
22 c2 19 -4 22 -36 25 -35 3 -39 1 -49 -30 l-12 -33 -6 30 c-5 27 -9 30 -45
30 -36 0 -41 -3 -50 -32 l-11 -33 -9 33 c-9 28 -15 32 -48 35 -24 2 -39 -1
-42 -10 -2 -7 8 -65 23 -128 l28 -115 41 -3 c40 -3 43 -2 51 30 l8 33 12 -32
c10 -29 15 -33 46 -33 40 0 50 13 62 75 l7 40 13 -31 c7 -17 28 -44 46 -59 28
-24 39 -27 81 -22 37 3 56 11 79 34 l29 30 34 -34 c27 -27 41 -33 77 -33 45 0
107 30 109 52 1 7 4 0 8 -17 6 -25 3 -32 -17 -43 -18 -11 -23 -20 -20 -41 3
-23 1 -27 -14 -23 -10 2 -16 7 -14 11 3 4 1 12 -3 19 -13 21 -69 3 -88 -29
-15 -25 -18 -26 -37 -13 -24 16 -64 18 -101 4 -23 -9 -27 -15 -23 -41 3 -16 1
-32 -4 -35 -4 -3 -8 6 -8 20 0 14 -9 35 -20 46 -21 21 -74 27 -85 10 -4 -7
-11 -8 -18 -1 -7 5 -67 9 -135 9 -107 -1 -125 -3 -135 -18 -10 -17 -12 -17
-38 2 -27 21 -75 22 -120 3 -14 -5 -16 0 -12 39 3 25 2 46 -3 46 -5 0 -8 19
-5 43 l4 42 18 -42 c15 -36 23 -43 46 -43 50 0 55 10 35 72 -16 47 -16 58 -5
74 21 28 15 54 -18 85 -30 28 -34 29 -131 28 l-100 0 -11 -32 -11 -32 -6 30
c-4 27 -10 30 -44 33 -43 4 -55 -7 -56 -48 -1 -22 -3 -20 -13 10 -10 30 -17
35 -49 38 -20 2 -39 -1 -42 -6z m84 -89 l13 -78 15 78 c13 75 15 77 42 77 30
0 30 1 53 -125 2 -11 9 13 17 53 13 69 14 72 42 72 24 0 28 -3 23 -22 -48
-191 -49 -193 -80 -193 -28 0 -30 3 -41 58 -11 57 -24 86 -24 54 0 -9 -5 -39
-11 -67 -10 -46 -13 -50 -40 -50 -23 0 -30 5 -35 28 -3 15 -12 52 -19 82 -28
120 -29 110 3 110 29 0 30 -2 42 -77z m370 57 c24 -24 26 -62 5 -80 -10 -8
-12 -18 -6 -29 5 -9 13 -33 19 -53 10 -38 10 -38 -18 -38 -25 0 -30 5 -36 35
-5 30 -27 55 -48 55 -3 0 -6 -20 -6 -45 0 -41 -2 -45 -25 -45 l-25 0 0 110 0
110 60 0 c47 0 64 -4 80 -20z m154 -30 c13 -94 21 -99 35 -21 12 68 14 71 41
71 26 0 29 -4 39 -50 6 -28 11 -61 12 -73 l0 -22 9 22 c5 13 12 45 16 73 6 47
8 50 35 50 33 0 34 11 -6 -135 -20 -77 -23 -80 -50 -80 -27 0 -30 3 -41 58
-11 57 -24 86 -24 54 0 -9 -5 -39 -11 -67 -10 -46 -13 -50 -40 -50 -23 0 -30
5 -35 28 -3 15 -15 61 -25 104 -10 42 -19 79 -19 82 0 3 13 6 29 6 27 0 29 -3
35 -50z m401 27 c51 -43 41 -157 -14 -187 -25 -13 -87 -13 -112 0 -25 14 -49
62 -49 100 0 37 23 85 47 99 33 19 100 13 128 -12z m236 -6 c25 -25 29 -37 29
-81 0 -44 -4 -56 -29 -81 -57 -57 -158 -31 -177 45 -27 111 99 194 177 117z
m223 0 c33 -31 42 -78 23 -124 -20 -46 -61 -67 -132 -67 l-55 0 0 111 0 111
70 -4 c56 -3 74 -8 94 -27z m190 20 c13 -21 -6 -38 -41 -37 -47 1 -53 -19 -11
-40 67 -34 84 -68 55 -108 -28 -38 -132 -38 -132 -1 0 17 6 20 41 17 55 -5 67
21 21 44 -70 36 -86 75 -47 114 21 21 103 29 114 11z m-1274 -271 c0 -13 -7
-20 -20 -20 -11 0 -20 -7 -20 -15 0 -8 7 -15 15 -15 8 0 15 -9 15 -20 0 -11
-7 -20 -15 -20 -12 0 -15 -13 -15 -60 l0 -60 -30 0 -30 0 0 60 c0 33 -4 60
-10 60 -16 0 -12 37 5 44 8 3 15 14 15 24 0 27 20 42 57 42 26 0 33 -4 33 -20z
m-150 -70 c5 -10 10 -46 10 -79 0 -58 -1 -61 -25 -61 -22 0 -24 4 -27 58 -3
49 -6 57 -23 57 -17 0 -20 -8 -23 -57 -3 -54 -5 -58 -27 -58 -24 0 -25 2 -25
79 l0 79 65 1 c54 0 66 -3 75 -19z m275 14 c26 -11 44 -62 34 -98 -12 -40 -34
-56 -81 -56 -48 0 -78 30 -78 79 0 63 61 99 125 75z m316 -5 c9 -5 20 -4 26 2
6 6 23 9 39 7 37 -4 54 -37 54 -106 0 -52 -1 -53 -27 -50 -26 3 -28 6 -29 56
-1 58 -6 67 -29 59 -11 -5 -15 -21 -15 -62 0 -52 -1 -55 -25 -55 -22 0 -24 4
-27 58 -2 43 -7 57 -18 57 -11 0 -16 -14 -18 -57 -3 -57 -4 -58 -32 -58 l-30
0 0 79 0 79 58 0 c31 0 64 -4 73 -9z m264 -3 c14 -10 20 -30 23 -80 l4 -66
-38 1 c-22 1 -43 0 -49 -1 -27 -6 -46 2 -57 25 -9 19 -8 29 6 50 9 14 24 25
34 25 9 0 24 5 32 11 11 8 6 9 -22 7 -28 -3 -38 0 -41 14 -3 9 0 19 7 22 24
10 83 5 101 -8z m394 -10 c61 -65 -4 -164 -88 -135 -37 13 -51 35 -51 83 0 68
92 102 139 52z m192 8 c6 -7 14 -43 17 -79 l5 -65 -32 0 c-31 0 -31 0 -31 54
0 86 -40 89 -45 4 -1 -23 -3 -46 -4 -50 0 -5 -12 -8 -26 -8 -25 0 -25 1 -25
79 l0 79 64 0 c44 0 69 -4 77 -14z m-1491 -264 c26 -14 42 -65 29 -97 -13 -36
-38 -52 -78 -53 -72 0 -109 84 -59 137 23 25 74 31 108 13z m202 -47 c3 -50 6
-58 23 -58 17 0 20 8 23 58 3 53 5 57 27 57 24 0 25 -2 25 -80 0 -73 -2 -80
-20 -80 -11 0 -20 5 -20 12 0 9 -3 9 -12 0 -17 -17 -64 -15 -82 4 -11 11 -16
35 -16 80 0 61 1 64 25 64 22 0 24 -4 27 -57z m475 35 c30 -28 31 -85 3 -116
-27 -29 -92 -30 -120 -2 -31 31 -30 82 3 118 27 29 82 30 114 0z m188 5 c10
-10 15 -36 15 -79 0 -62 -1 -64 -25 -64 -24 0 -25 3 -25 55 0 42 -4 57 -16 62
-23 8 -34 -14 -34 -69 0 -44 -2 -48 -25 -48 -25 0 -25 1 -25 78 l0 79 60 0
c41 1 66 -4 75 -14z m480 3 c12 -8 19 -33 22 -79 l6 -67 -32 0 c-31 0 -31 0
-31 54 0 55 -13 77 -32 58 -6 -6 -10 -33 -10 -61 0 -50 -1 -51 -29 -51 l-29 0
0 79 0 79 59 0 c33 0 67 -5 76 -12z"/>
</g>
</svg>
